<svg id="Capa_13" data-name="Capa 13" xmlns="http://www.w3.org/2000/svg" viewBox="0 0 414.77 383.39"><defs><style>.cls-1{fill:#633a34;}.cls-1,.cls-14,.cls-2,.cls-4{stroke:#e3e6ee;}.cls-1,.cls-10,.cls-12,.cls-13,.cls-14,.cls-2,.cls-4{stroke-miterlimit:10;}.cls-1,.cls-2,.cls-4{stroke-width:4px;}.cls-2{fill:#3fc1c9;}.cls-14,.cls-3{fill:#fdddca;}.cls-10,.cls-12,.cls-13,.cls-4{fill:none;}.cls-5{fill:#e3e6ee;}.cls-6{fill:#fc5185;}.cls-7{fill:#1a1a1a;}.cls-8{fill:#f2f2f2;}.cls-9{fill:#42210b;}.cls-10{stroke:#1a1a1a;stroke-width:1.8px;}.cls-10,.cls-12,.cls-13,.cls-14{stroke-linecap:round;}.cls-11{opacity:0.7;}.cls-12,.cls-13{stroke:#364f6b;}.cls-12{stroke-width:8px;}.cls-13{stroke-width:7.06px;}.cls-14{stroke-width:4.5px;}</style></defs><title>avatarRP</title><path class="cls-1" d="M187.63,197.3l-20.37,4.53A24.91,24.91,0,0,0,148.8,219L141,245l-12.07,6a25.28,25.28,0,0,0-13.79,25.64L117,292s-18,19-13,27,7,24,7,24l-11,20c-1,20,13,20,18,27s-7,41,14,34,30,12,30,12c-3.58,25.06,18,23,29,20,10.84-3,8.09,26.12,24.74,20.29a1,1,0,0,0,.63-1.1l0-.25c-1.35-10.91,7.1-20.61,18.07-21.36l122.94-8.4a35.89,35.89,0,0,1,24.42,7.91A13.62,13.62,0,0,0,390.2,456a13.26,13.26,0,0,1,10.66,5.05l3.38,4.42h0a11.08,11.08,0,0,0,11.82,4,17.35,17.35,0,0,0,8.75-5.94l4.53-5.79a21.66,21.66,0,0,1,20-8.11l.25,0A14.83,14.83,0,0,0,464.11,443l4-6.28A42.43,42.43,0,0,1,480.62,424l10.28-6.76A18.17,18.17,0,0,0,499,400.36l0-.27a28.94,28.94,0,0,1,4.9-19.09c2.42-3.53,1.2-1.49,5.14-7,7.5-10.5-12-30-12-30v-9.6a30.8,30.8,0,0,0-12.32-24.64L473,301v-8.14a20.8,20.8,0,0,0-7.63-16.1L451,265,449,237.63A19.27,19.27,0,0,0,436,220.87L419,215l-16.31-11.55a17.49,17.49,0,0,0-16.47-2L377,205c3-19-17-25-17-25l-8.39-10.06a23.85,23.85,0,0,0-16.92-8.56L312,160l-15.22-3.67a43.53,43.53,0,0,0-26.88,2.09l-11.57,4.79a33.25,33.25,0,0,1-9,2.32L227,168.09a24.32,24.32,0,0,0-13.82,6.38L189,197Z" transform="translate(-97.95 -153.11)"/><path class="cls-2" d="M156.4,276.39h93.73a37.42,37.42,0,0,1,37.42,37.42v64.58a3,3,0,0,1-3,3h-164a3,3,0,0,1-3-3V315.24A38.85,38.85,0,0,1,156.4,276.39Z"/><path class="cls-3" d="M407,369.88a13.79,13.79,0,0,1-4.1,6.95l-25.69,23.42c-2.57,2.34-9.9,10.19-12.66,15.57a103,103,0,0,1-36.16,12.54C327.14,438.62,316,451.5,302.5,451.5c-13.71,0-24.94-13.22-25.92-23.55-30-5.52-54.59-20.93-69.5-44.56.35-6.1,12.48-6,9.81-16C213.78,355.83,202,363,201,355s5-6,12-20-3-12-7-24,30-4,33-22c2.22-13.29-7-22.77-12-26.81a30.38,30.38,0,0,0-3-2.19s13.16-22.4,38-12c43,18,77-29,107-14.59,4.47,2.14,18,15.53,17.26,20.43C382,281,411.46,294.19,416,301,421.08,308.61,410.41,355.58,407,369.88Z" transform="translate(-97.95 -153.11)"/><path class="cls-3" d="M429,365l9.5-19.68a35,35,0,0,0,1.05-28.67c-2.47-5.92-6.06-9.65-10.05-9.65" transform="translate(-97.95 -153.11)"/><g id="brazos"><line class="cls-4" x1="145.72" y1="381.39" x2="145.55" y2="315.39"/><line class="cls-4" x1="261.72" y1="381.39" x2="261.55" y2="315.39"/></g><g id="brillo"><path class="cls-5" d="M273.48,445.43a33.62,33.62,0,0,0,11.11,13.35,32.67,32.67,0,0,0,8,4.12,27.6,27.6,0,0,0,8.95,1.6,28.07,28.07,0,0,1-9.26-.52,34.35,34.35,0,0,1-8.83-3.28,37,37,0,0,1-13.89-13.13,2.25,2.25,0,1,1,3.83-2.38A1.12,1.12,0,0,1,273.48,445.43Z" transform="translate(-97.95 -153.11)"/></g><g id="lentes"><path d="M326.24,379.27c0,7.48-10.5,21.65-23.46,21.65s-23.45-14.17-23.45-21.65S326.24,371.8,326.24,379.27Z" transform="translate(-97.95 -153.11)"/><path class="cls-6" d="M311.35,398.81c1.75,0,2.91-3.23,2.7-5-.33-3.36-5.86-6-12.62-6-5.62,0-10.38,1.84-12,4.38a2.63,2.63,0,0,0-.32.87,3.86,3.86,0,0,0,1.58,3.72l2.64,2C299,401.79,305,401.47,311.35,398.81Z" transform="translate(-97.95 -153.11)"/><path d="M302,387c3,1,1,4.78,2,6.7" transform="translate(-97.95 -153.11)"/><path d="M302.33,386a3.32,3.32,0,0,1,1.95,1.67,4.8,4.8,0,0,1,.36,2.25c0,.67-.1,1.3-.13,1.89a3.6,3.6,0,0,0,.16,1.5l0,.05a.68.68,0,0,1-.35.91.7.7,0,0,1-.9-.31,4.82,4.82,0,0,1-.47-2.17c0-.67,0-1.29,0-1.87a3.05,3.05,0,0,0-.31-1.42,1.43,1.43,0,0,0-.91-.62,1,1,0,0,1-.67-1.23,1,1,0,0,1,1.22-.66Z" transform="translate(-97.95 -153.11)"/><circle class="cls-7" cx="150.05" cy="198.89" r="23"/><circle class="cls-7" cx="262.05" cy="198.89" r="23"/><circle class="cls-8" cx="162.05" cy="184.89" r="11"/><circle class="cls-8" cx="273.05" cy="185.89" r="11"/><path class="cls-9" d="M204.46,325.16a149.62,149.62,0,0,1,27-15A83.8,83.8,0,0,1,262,303.5a2.5,2.5,0,1,1,.08,5H262a79.68,79.68,0,0,0-29.25,5,146.85,146.85,0,0,0-27.19,13.37,1,1,0,0,1-1.08-1.68Z" transform="translate(-97.95 -153.11)"/><path class="cls-9" d="M403.46,323.84a146.85,146.85,0,0,0-27.19-13.37,79.68,79.68,0,0,0-29.25-5,2.5,2.5,0,0,1-.17-5H347a83.8,83.8,0,0,1,30.54,6.7,149.62,149.62,0,0,1,27,15,1,1,0,0,1,.27,1.39A1,1,0,0,1,403.46,323.84Z" transform="translate(-97.95 -153.11)"/><circle class="cls-10" cx="143.49" cy="190.08" r="41.95"/><circle class="cls-10" cx="265.28" cy="190.08" r="41.95"/><path class="cls-10" d="M283.38,349.05c1.72-10.32,8.49-18.94,18.95-18.94s18,9,18.94,18.94" transform="translate(-97.95 -153.11)"/><line class="cls-10" x1="177.94" y1="166.16" x2="230.54" y2="166.17"/><g class="cls-11"><path d="M283,343c0,22.64-19.36,42-42,42s-41-19.36-41-42a41,41,0,0,1,41-41C263.64,302,283,320.36,283,343Z" transform="translate(-97.95 -153.11)"/><circle cx="265.05" cy="189.89" r="41"/></g></g><g id="codigo"><line class="cls-12" x1="201.47" y1="366.23" x2="213.63" y2="329.27"/><path class="cls-13" d="M323.29,488.53l8.3,6.92a6.3,6.3,0,0,1-.8,9.85l-9.26,6.17" transform="translate(-97.95 -153.11)"/><path class="cls-13" d="M286.83,488.53l-8.3,6.92a6.3,6.3,0,0,0,.8,9.85l9.26,6.17" transform="translate(-97.95 -153.11)"/></g><path id="cuello" class="cls-14" d="M328.5,430.5c0,10.49-11.64,25-26,25s-26-14.51-26-25" transform="translate(-97.95 -153.11)"/></svg>